<svg
    width="218"
    height="56"
    viewBox="0 0 218 56"
    fill="none"
    xmlns="http://www.w3.org/2000/svg"
  >
    <g clip-path="url(#clip0_189_1130)">
      <path
        d="M77.6329 29.7268L62.83 9.47597V29.3234H59.1273V1.66211H60.6933L75.1249 20.81V1.66211H78.8274V29.7268H77.6329Z"
        fill="white"
      />
      <path
        d="M82.6066 19.1773C82.6066 16.0496 83.4758 13.5251 85.2103 11.604C86.9487 9.67927 89.2347 8.72058 92.072 8.72058C95.0662 8.72058 97.3904 9.64226 99.0445 11.4893C100.695 13.3327 101.522 15.894 101.522 19.1773C101.522 22.442 100.68 25.0146 98.9833 26.9024C97.2909 28.7864 94.9896 29.7302 92.072 29.7302C89.0969 29.7302 86.7727 28.7791 85.1032 26.8727C83.4338 24.9665 82.6066 22.405 82.6066 19.1773ZM86.5161 19.1773C86.5161 24.2595 88.3655 26.8061 92.072 26.8061C93.8065 26.8061 95.1619 26.1251 96.1422 24.7591C97.1224 23.4007 97.6124 21.5352 97.6124 19.1773C97.6124 14.1506 95.767 11.6411 92.072 11.6411C90.3834 11.6411 89.0318 12.3073 88.0248 13.6436C87.0139 14.9873 86.5161 16.8269 86.5161 19.1773Z"
        fill="white"
      />
      <path
        d="M112.649 29.7269H111.657L102.69 9.02075H106.76L112.281 23.2272L117.91 9.02075H121.819L112.649 29.7269Z"
        fill="white"
      />
      <path
        d="M139.582 24.4594C139.582 26.2213 139.674 27.9388 139.889 29.3233H136.465L136.117 26.7691H135.983C134.857 28.3646 132.56 29.7859 129.569 29.7859C125.319 29.7859 123.152 26.8914 123.152 23.9561C123.152 19.0553 127.659 16.3716 135.768 16.4087V15.9942C135.768 14.3174 135.29 11.2562 130.998 11.2969C129.003 11.2969 126.966 11.8411 125.491 12.8072L124.622 10.3345C126.357 9.28333 128.918 8.57263 131.56 8.57263C138.024 8.57263 139.578 12.8072 139.578 16.8751V24.4594H139.582ZM135.857 18.9702C131.695 18.885 126.966 19.6031 126.966 23.5378C126.966 25.9697 128.616 27.0654 130.523 27.0654C133.299 27.0654 135.075 25.3886 135.68 23.6673C135.811 23.2935 135.853 22.8678 135.853 22.494V18.9702H135.857Z"
        fill="white"
      />
      <path
        d="M151.594 5.0934V29.3234H147.684V5.0934H138.564V1.66211H161.131V5.0934H151.594Z"
        fill="white"
      />
      <path
        d="M177.677 19.5511H162.599C162.599 21.9275 163.265 23.756 164.605 25.0367C165.788 26.1508 167.312 26.7024 169.172 26.7024C171.291 26.7024 173.063 26.1139 174.48 24.9405L176.042 27.5092C175.472 28.0571 174.587 28.5384 173.408 28.9345C171.922 29.46 170.268 29.7266 168.446 29.7266C165.818 29.7266 163.587 28.8604 161.752 27.1318C159.703 25.2328 158.684 22.6714 158.684 19.4549C158.684 16.1198 159.727 13.4362 161.824 11.4152C163.705 9.61626 165.922 8.7168 168.487 8.7168C171.47 8.7168 173.809 9.52372 175.498 11.1524C177.14 12.7107 177.961 14.7799 177.961 17.3598C177.968 18.1556 177.875 18.8848 177.677 19.5511ZM168.675 11.7409C167.02 11.7409 165.635 12.2554 164.513 13.2807C163.448 14.2616 162.847 15.4757 162.698 16.9304H174.273C174.273 15.4869 173.806 14.2839 172.867 13.3141C171.841 12.2702 170.437 11.7409 168.675 11.7409Z"
        fill="white"
      />
      <path
        d="M197.419 10.7305L195.561 13.2512C195.178 12.8922 194.505 12.5516 193.537 12.2259C192.568 11.9039 191.614 11.741 190.68 11.741C188.643 11.741 187.019 12.4258 185.817 13.7953C184.622 15.1611 184.021 17.0378 184.021 19.4216C184.021 21.7906 184.626 23.6006 185.844 24.8444C187.058 26.088 188.739 26.7062 190.894 26.7062C192.564 26.7062 194.249 26.088 195.944 24.8406L197.416 27.8647C195.42 29.1085 192.947 29.7302 189.998 29.7302C187.142 29.7302 184.776 28.805 182.91 26.9504C181.046 25.0923 180.111 22.5901 180.111 19.4216C180.111 16.1976 181.084 13.6066 183.038 11.6522C184.994 9.69778 187.659 8.72058 191.052 8.72058C192.139 8.72058 193.319 8.94268 194.593 9.37575C195.876 9.81993 196.813 10.2715 197.419 10.7305Z"
        fill="white"
      />
      <path
        d="M213.872 29.3233V16.6124C213.872 15.1059 213.485 13.914 212.712 13.0479C211.942 12.178 210.859 11.7412 209.453 11.7412C208.553 11.7412 207.642 11.9966 206.738 12.5037C205.827 13.0183 205.134 13.6068 204.648 14.2916V29.3233H200.942V2.58372L204.648 0.807007V11.3267C205.142 10.5827 205.943 9.96081 207.046 9.46111C208.148 8.96512 209.286 8.72082 210.465 8.72082C212.686 8.72082 214.424 9.4241 215.687 10.8307C216.939 12.2409 217.575 14.1694 217.575 16.6124V29.3233H213.872Z"
        fill="white"
      />
      <path
        d="M15.6605 14.6173L22.9203 7.74727L15.3656 0.433105L0.248779 15.0503L15.3656 29.6676L23.2227 21.9166L15.6605 14.6173Z"
        fill="white"
      />
      <path
        d="M21.0096 15.0503L36.5822 30.108L51.9977 15.0503L36.5822 0L21.0096 15.0503Z"
        fill="white"
      />
      <path
        d="M8.33955 55.7968L7.47803 53.2501H2.82963L1.91067 55.7968H0L5.07342 43.5596H5.52524L10.2311 55.7968H8.33955ZM5.21892 46.7206L3.28527 52.036H6.99558L5.21892 46.7206Z"
        fill="white"
      />
      <path
        d="M24.6396 43.7223H26.3435V51.9878C26.3435 52.7244 26.5847 53.3315 27.0671 53.8052C27.5496 54.279 28.1891 54.5197 28.9855 54.5197C29.8278 54.5197 30.4902 54.2901 30.9726 53.8274C31.4552 53.3648 31.6964 52.7391 31.6964 51.947V43.7223H33.4003V52.121C33.4003 53.3425 33.0059 54.2938 32.221 54.9749C31.4321 55.6597 30.36 56.0001 29.0046 56.0001C27.607 56.0001 26.531 55.6633 25.7729 54.9934C25.0186 54.3234 24.6396 53.361 24.6396 52.11V43.7223Z"
        fill="white"
      />
      <path
        d="M53.6099 45.2029V55.7928H51.906V45.2029H47.9315V43.7185H57.7605V45.2029H53.6099Z"
        fill="white"
      />
      <path
        d="M70.7291 49.6559C70.7291 47.9087 71.1809 46.4467 72.0884 45.2696C72.9959 44.0925 74.2174 43.5077 75.7605 43.5077C77.495 43.5077 78.8236 44.0481 79.7465 45.1327C80.6692 46.2135 81.1325 47.7236 81.1325 49.6559C81.1325 51.6399 80.6692 53.1946 79.7426 54.3161C78.8159 55.4413 77.4874 56.0003 75.7605 56.0003C74.1868 56.0003 72.9538 55.408 72.0655 54.2198C71.1734 53.0354 70.7291 51.514 70.7291 49.6559ZM72.5173 49.6559C72.5173 51.0402 72.8007 52.1989 73.3636 53.1242C73.9263 54.0496 74.7266 54.516 75.7567 54.516C76.9206 54.516 77.809 54.0903 78.4216 53.239C79.0342 52.3876 79.3368 51.192 79.3368 49.6522C79.3368 46.5429 78.1421 44.9883 75.7567 44.9883C74.6998 44.9883 73.8957 45.4065 73.3444 46.2394C72.793 47.0796 72.5173 48.216 72.5173 49.6559Z"
        fill="white"
      />
      <path
        d="M105.588 55.7966L104.103 48.042L101.376 55.9632H100.951L98.1447 48.042L96.6936 55.7966H95.0739L97.4097 43.7223H98.1869L101.162 52.5319L103.907 43.7223H104.673L107.204 55.7966H105.588Z"
        fill="white"
      />
      <path
        d="M128.761 55.7968L127.9 53.2501H123.255L122.333 55.7968H120.422L125.495 43.5596H125.947L130.653 55.7968H128.761ZM125.641 46.7206L123.707 52.036H127.417L125.641 46.7206Z"
        fill="white"
      />
      <path
        d="M147.919 45.2029V55.7928H146.214V45.2029H142.239V43.7185H152.069V45.2029H147.919Z"
        fill="white"
      />
      <path
        d="M166.899 55.7966V43.7223H168.602V55.7966H166.899Z"
        fill="white"
      />
      <path
        d="M183.956 49.6559C183.956 47.9087 184.408 46.4467 185.315 45.2696C186.224 44.0925 187.445 43.5077 188.988 43.5077C190.722 43.5077 192.051 44.0481 192.973 45.1327C193.896 46.2135 194.36 47.7236 194.36 49.6559C194.36 51.6399 193.896 53.1946 192.969 54.3161C192.043 55.4413 190.715 56.0003 188.988 56.0003C187.414 56.0003 186.18 55.408 185.293 54.2198C184.4 53.0354 183.956 51.514 183.956 49.6559ZM185.749 49.6559C185.749 51.0402 186.032 52.1989 186.594 53.1242C187.157 54.0496 187.958 54.516 188.988 54.516C190.152 54.516 191.039 54.0903 191.653 53.239C192.265 52.3876 192.568 51.192 192.568 49.6522C192.568 46.5429 191.373 44.9883 188.988 44.9883C187.931 44.9883 187.126 45.4065 186.576 46.2394C186.02 47.0796 185.749 48.216 185.749 49.6559Z"
        fill="white"
      />
      <path
        d="M217.487 55.9594L211.031 47.1313V55.7928H209.411V43.7185H210.093L216.376 52.0654V43.7185H217.996V55.9558H217.487V55.9594Z"
        fill="white"
      />
    </g>
    <defs>
      <clipPath id="clip0_189_1130">
        <rect
          width="218"
          height="56"
          fill="white"
        />
      </clipPath>
    </defs>
  </svg>